<mxfile host="app.diagrams.net" modified="2023-09-08T12:49:25.999Z" agent="Mozilla/5.0 (Windows NT 10.0; Win64; x64) AppleWebKit/537.36 (KHTML, like Gecko) Chrome/116.0.0.0 Safari/537.36 Edg/116.0.1938.69" etag="FEZWIpffljIOfKfcfJMk" version="21.7.2" type="github">
  <diagram name="Page-1" id="2YBvvXClWsGukQMizWep">
    <mxGraphModel dx="1018" dy="627" grid="1" gridSize="10" guides="1" tooltips="1" connect="1" arrows="1" fold="1" page="1" pageScale="1" pageWidth="850" pageHeight="1400" math="1" shadow="0">
      <root>
        <mxCell id="0" />
        <mxCell id="1" parent="0" />
        <mxCell id="YHYRs7_trS6b7xFzlqwo-35" value="" style="whiteSpace=wrap;html=1;fillStyle=hatch;dashed=1;strokeColor=#FF8000;dashPattern=8 8;strokeWidth=2;" vertex="1" parent="1">
          <mxGeometry x="50" y="180" width="740" height="610" as="geometry" />
        </mxCell>
        <mxCell id="YHYRs7_trS6b7xFzlqwo-36" value="" style="rounded=0;whiteSpace=wrap;html=1;fillStyle=hatch;dashed=1;strokeColor=#0000FF;strokeWidth=2;" vertex="1" parent="1">
          <mxGeometry x="80" y="400" width="680" height="360" as="geometry" />
        </mxCell>
        <mxCell id="YHYRs7_trS6b7xFzlqwo-37" style="edgeStyle=orthogonalEdgeStyle;rounded=0;orthogonalLoop=1;jettySize=auto;html=1;exitX=1;exitY=0.5;exitDx=0;exitDy=0;" edge="1" parent="1" source="YHYRs7_trS6b7xFzlqwo-38" target="YHYRs7_trS6b7xFzlqwo-43">
          <mxGeometry relative="1" as="geometry" />
        </mxCell>
        <mxCell id="YHYRs7_trS6b7xFzlqwo-38" value="&lt;b style=&quot;&quot;&gt;&lt;br&gt;&lt;/b&gt;" style="rounded=0;whiteSpace=wrap;html=1;fillStyle=hatch;dashed=1;dashPattern=8 8;strokeWidth=2;strokeColor=#FF0080;" vertex="1" parent="1">
          <mxGeometry x="150" y="450" width="300" height="260" as="geometry" />
        </mxCell>
        <mxCell id="YHYRs7_trS6b7xFzlqwo-39" style="edgeStyle=orthogonalEdgeStyle;rounded=0;orthogonalLoop=1;jettySize=auto;html=1;" edge="1" parent="1" source="YHYRs7_trS6b7xFzlqwo-40" target="YHYRs7_trS6b7xFzlqwo-42">
          <mxGeometry relative="1" as="geometry" />
        </mxCell>
        <mxCell id="YHYRs7_trS6b7xFzlqwo-40" value="" style="rounded=0;whiteSpace=wrap;html=1;" vertex="1" parent="1">
          <mxGeometry x="610" y="219.5" width="80" height="61" as="geometry" />
        </mxCell>
        <mxCell id="YHYRs7_trS6b7xFzlqwo-41" style="edgeStyle=orthogonalEdgeStyle;rounded=0;orthogonalLoop=1;jettySize=auto;html=1;" edge="1" parent="1">
          <mxGeometry relative="1" as="geometry">
            <mxPoint x="649.8571428571429" y="399.8571428571428" as="targetPoint" />
            <mxPoint x="650" y="355" as="sourcePoint" />
          </mxGeometry>
        </mxCell>
        <mxCell id="YHYRs7_trS6b7xFzlqwo-42" value="$$\hat{x}_{t|t-1},P_{t|t-1}$$" style="ellipse;whiteSpace=wrap;html=1;direction=east;" vertex="1" parent="1">
          <mxGeometry x="605" y="320" width="90" height="40" as="geometry" />
        </mxCell>
        <mxCell id="YHYRs7_trS6b7xFzlqwo-43" value="" style="rounded=0;whiteSpace=wrap;html=1;fillStyle=hatch;dashed=1;dashPattern=8 8;strokeWidth=2;strokeColor=#FF0080;" vertex="1" parent="1">
          <mxGeometry x="565" y="535" width="90" height="90" as="geometry" />
        </mxCell>
        <mxCell id="YHYRs7_trS6b7xFzlqwo-44" value="&lt;b&gt;&lt;font style=&quot;font-size: 16px;&quot;&gt;E-Step&lt;/font&gt;&lt;/b&gt;" style="text;strokeColor=none;fillColor=none;spacingLeft=4;spacingRight=4;overflow=hidden;rotatable=0;points=[[0,0.5],[1,0.5]];portConstraint=eastwest;fontSize=12;whiteSpace=wrap;html=1;" vertex="1" parent="1">
          <mxGeometry x="265" y="420" width="70" height="30" as="geometry" />
        </mxCell>
        <mxCell id="YHYRs7_trS6b7xFzlqwo-45" value="&lt;b&gt;&lt;font style=&quot;font-size: 16px;&quot;&gt;Predict&lt;/font&gt;&lt;/b&gt;" style="text;strokeColor=none;fillColor=none;spacingLeft=4;spacingRight=4;overflow=hidden;rotatable=0;points=[[0,0.5],[1,0.5]];portConstraint=eastwest;fontSize=12;whiteSpace=wrap;html=1;" vertex="1" parent="1">
          <mxGeometry x="616.25" y="235" width="67.5" height="30" as="geometry" />
        </mxCell>
        <mxCell id="YHYRs7_trS6b7xFzlqwo-46" value="&lt;b&gt;&lt;font style=&quot;font-size: 16px;&quot;&gt;Update&lt;/font&gt;&lt;/b&gt;" style="text;strokeColor=none;fillColor=none;spacingLeft=4;spacingRight=4;overflow=hidden;rotatable=0;points=[[0,0.5],[1,0.5]];portConstraint=eastwest;fontSize=12;whiteSpace=wrap;html=1;" vertex="1" parent="1">
          <mxGeometry x="395" y="370" width="65" height="30" as="geometry" />
        </mxCell>
        <mxCell id="YHYRs7_trS6b7xFzlqwo-47" value="&lt;font style=&quot;font-size: 16px;&quot;&gt;&lt;b&gt;2GHS-LSM&lt;/b&gt;&lt;/font&gt;" style="text;strokeColor=none;fillColor=none;spacingLeft=4;spacingRight=4;overflow=hidden;rotatable=0;points=[[0,0.5],[1,0.5]];portConstraint=eastwest;fontSize=12;whiteSpace=wrap;html=1;" vertex="1" parent="1">
          <mxGeometry x="250" y="456" width="100" height="30" as="geometry" />
        </mxCell>
        <mxCell id="YHYRs7_trS6b7xFzlqwo-48" value="$$\mu_t$$" style="ellipse;whiteSpace=wrap;html=1;align=center;" vertex="1" parent="1">
          <mxGeometry x="210" y="510" width="100" height="40" as="geometry" />
        </mxCell>
        <mxCell id="YHYRs7_trS6b7xFzlqwo-49" style="rounded=0;orthogonalLoop=1;jettySize=auto;html=1;entryX=0.5;entryY=1;entryDx=0;entryDy=0;" edge="1" parent="1" source="YHYRs7_trS6b7xFzlqwo-50" target="YHYRs7_trS6b7xFzlqwo-48">
          <mxGeometry relative="1" as="geometry" />
        </mxCell>
        <mxCell id="YHYRs7_trS6b7xFzlqwo-50" value="$$(\mu_t)_T$$" style="ellipse;whiteSpace=wrap;html=1;align=center;" vertex="1" parent="1">
          <mxGeometry x="180" y="600" width="70" height="30" as="geometry" />
        </mxCell>
        <mxCell id="YHYRs7_trS6b7xFzlqwo-51" style="rounded=0;orthogonalLoop=1;jettySize=auto;html=1;entryX=0.5;entryY=1;entryDx=0;entryDy=0;" edge="1" parent="1" source="YHYRs7_trS6b7xFzlqwo-52" target="YHYRs7_trS6b7xFzlqwo-48">
          <mxGeometry relative="1" as="geometry" />
        </mxCell>
        <mxCell id="YHYRs7_trS6b7xFzlqwo-52" value="$$(\mu_t)_{T^c}$$" style="ellipse;whiteSpace=wrap;html=1;align=center;" vertex="1" parent="1">
          <mxGeometry x="280" y="600" width="70" height="30" as="geometry" />
        </mxCell>
        <mxCell id="YHYRs7_trS6b7xFzlqwo-53" style="edgeStyle=orthogonalEdgeStyle;rounded=0;orthogonalLoop=1;jettySize=auto;html=1;" edge="1" parent="1" source="YHYRs7_trS6b7xFzlqwo-54" target="YHYRs7_trS6b7xFzlqwo-50">
          <mxGeometry relative="1" as="geometry" />
        </mxCell>
        <mxCell id="YHYRs7_trS6b7xFzlqwo-54" value="&lt;i&gt;Gauss&lt;/i&gt;" style="ellipse;whiteSpace=wrap;html=1;align=center;dashed=1;" vertex="1" parent="1">
          <mxGeometry x="185" y="660" width="60" height="20" as="geometry" />
        </mxCell>
        <mxCell id="YHYRs7_trS6b7xFzlqwo-55" style="edgeStyle=orthogonalEdgeStyle;rounded=0;orthogonalLoop=1;jettySize=auto;html=1;" edge="1" parent="1" source="YHYRs7_trS6b7xFzlqwo-57" target="YHYRs7_trS6b7xFzlqwo-52">
          <mxGeometry relative="1" as="geometry" />
        </mxCell>
        <mxCell id="YHYRs7_trS6b7xFzlqwo-56" style="edgeStyle=orthogonalEdgeStyle;rounded=0;orthogonalLoop=1;jettySize=auto;html=1;exitX=0.5;exitY=0;exitDx=0;exitDy=0;" edge="1" parent="1" source="YHYRs7_trS6b7xFzlqwo-57">
          <mxGeometry relative="1" as="geometry">
            <mxPoint x="315.3529411764707" y="659.9999999999998" as="targetPoint" />
          </mxGeometry>
        </mxCell>
        <mxCell id="YHYRs7_trS6b7xFzlqwo-57" value="&lt;i&gt;LSM&lt;/i&gt;" style="ellipse;whiteSpace=wrap;html=1;align=center;dashed=1;" vertex="1" parent="1">
          <mxGeometry x="285" y="660" width="60" height="20" as="geometry" />
        </mxCell>
        <mxCell id="YHYRs7_trS6b7xFzlqwo-58" style="edgeStyle=orthogonalEdgeStyle;rounded=0;orthogonalLoop=1;jettySize=auto;html=1;entryX=1;entryY=0.5;entryDx=0;entryDy=0;" edge="1" parent="1" source="YHYRs7_trS6b7xFzlqwo-59" target="YHYRs7_trS6b7xFzlqwo-57">
          <mxGeometry relative="1" as="geometry" />
        </mxCell>
        <mxCell id="YHYRs7_trS6b7xFzlqwo-59" value="$$w$$" style="ellipse;whiteSpace=wrap;html=1;align=center;" vertex="1" parent="1">
          <mxGeometry x="380" y="655" width="40" height="30" as="geometry" />
        </mxCell>
        <mxCell id="YHYRs7_trS6b7xFzlqwo-60" style="edgeStyle=orthogonalEdgeStyle;rounded=0;orthogonalLoop=1;jettySize=auto;html=1;" edge="1" parent="1" source="YHYRs7_trS6b7xFzlqwo-61" target="YHYRs7_trS6b7xFzlqwo-40">
          <mxGeometry relative="1" as="geometry" />
        </mxCell>
        <mxCell id="YHYRs7_trS6b7xFzlqwo-61" value="$$T_{t-1},\hat{x}_{t-1},P_{t-1}$$" style="ellipse;whiteSpace=wrap;html=1;align=center;" vertex="1" parent="1">
          <mxGeometry x="345" y="210" width="150" height="80" as="geometry" />
        </mxCell>
        <mxCell id="YHYRs7_trS6b7xFzlqwo-62" style="edgeStyle=orthogonalEdgeStyle;rounded=0;orthogonalLoop=1;jettySize=auto;html=1;entryX=0;entryY=0.5;entryDx=0;entryDy=0;" edge="1" parent="1" source="YHYRs7_trS6b7xFzlqwo-63" target="YHYRs7_trS6b7xFzlqwo-61">
          <mxGeometry relative="1" as="geometry" />
        </mxCell>
        <mxCell id="YHYRs7_trS6b7xFzlqwo-63" value="Prior" style="whiteSpace=wrap;html=1;align=center;" vertex="1" parent="1">
          <mxGeometry x="134.5" y="217.75" width="85" height="64.5" as="geometry" />
        </mxCell>
        <mxCell id="YHYRs7_trS6b7xFzlqwo-64" value="&lt;b&gt;&lt;font style=&quot;font-size: 16px;&quot;&gt;M-Step&lt;/font&gt;&lt;/b&gt;" style="text;strokeColor=none;fillColor=none;spacingLeft=4;spacingRight=4;overflow=hidden;rotatable=0;points=[[0,0.5],[1,0.5]];portConstraint=eastwest;fontSize=12;whiteSpace=wrap;html=1;" vertex="1" parent="1">
          <mxGeometry x="575" y="510" width="80" height="30" as="geometry" />
        </mxCell>
        <mxCell id="YHYRs7_trS6b7xFzlqwo-65" value="&lt;font style=&quot;font-size: 16px;&quot;&gt;$$\hat{x}_t$$&lt;/font&gt;" style="text;strokeColor=none;fillColor=none;spacingLeft=4;spacingRight=4;overflow=hidden;rotatable=0;points=[[0,0.5],[1,0.5]];portConstraint=eastwest;fontSize=12;whiteSpace=wrap;html=1;" vertex="1" parent="1">
          <mxGeometry x="595" y="550" width="30" height="50" as="geometry" />
        </mxCell>
        <mxCell id="YHYRs7_trS6b7xFzlqwo-66" value="&lt;font style=&quot;font-size: 14px;&quot;&gt;&lt;b&gt;Innovation&lt;/b&gt;&lt;/font&gt;" style="text;strokeColor=none;fillColor=none;spacingLeft=4;spacingRight=4;overflow=hidden;rotatable=0;points=[[0,0.5],[1,0.5]];portConstraint=eastwest;fontSize=12;whiteSpace=wrap;html=1;" vertex="1" parent="1">
          <mxGeometry x="219.5" y="485" width="87.5" height="35" as="geometry" />
        </mxCell>
        <mxCell id="YHYRs7_trS6b7xFzlqwo-67" value="" style="endArrow=classic;html=1;rounded=0;exitX=0.438;exitY=0.333;exitDx=0;exitDy=0;exitPerimeter=0;" edge="1" parent="1" source="YHYRs7_trS6b7xFzlqwo-64">
          <mxGeometry relative="1" as="geometry">
            <mxPoint x="616.25" y="510.5699999999999" as="sourcePoint" />
            <mxPoint x="421.57" y="290" as="targetPoint" />
            <Array as="points">
              <mxPoint x="421.57" y="290" />
            </Array>
          </mxGeometry>
        </mxCell>
        <mxCell id="YHYRs7_trS6b7xFzlqwo-68" value="&lt;b style=&quot;border-color: var(--border-color); font-size: 12px; text-align: left; background-color: rgb(251, 251, 251);&quot;&gt;$$t \longleftarrow t+1$$&lt;/b&gt;" style="edgeLabel;resizable=0;html=1;align=center;verticalAlign=middle;" connectable="0" vertex="1" parent="YHYRs7_trS6b7xFzlqwo-67">
          <mxGeometry relative="1" as="geometry">
            <mxPoint x="-56" y="-65" as="offset" />
          </mxGeometry>
        </mxCell>
      </root>
    </mxGraphModel>
  </diagram>
</mxfile>
